HIERARCHY
ROOT hip
{
  OFFSET 0 0 0
  CHANNELS 6 Xposition Yposition Zposition Zrotation Yrotation Xrotation
  JOINT abdomen
  {
    OFFSET 0 20.6881 -0.73152
    CHANNELS 3 Zrotation Xrotation Yrotation
    JOINT chest
    {
      OFFSET 0 11.7043 -0.48768
      CHANNELS 3 Zrotation Xrotation Yrotation
      JOINT neck
      {
        OFFSET 0 22.1894 -2.19456
        CHANNELS 3 Zrotation Xrotation Yrotation
        JOINT head
        {
          OFFSET -0.24384 7.07133 1.2192
          CHANNELS 3 Zrotation Xrotation Yrotation
          JOINT leftEye
          {
            OFFSET 4.14528 8.04674 8.04672
            CHANNELS 3 Zrotation Xrotation Yrotation
            End Site
            {
              OFFSET 1 0 0
            }
          }
          JOINT rightEye
          {
            OFFSET -3.6576 8.04674 8.04672
            CHANNELS 3 Zrotation Xrotation Yrotation
            End Site
            {
              OFFSET 1 0 0
            }
          }
        }
      }
      JOINT rCollar
      {
        OFFSET -2.68224 19.2634 -4.8768
        CHANNELS 3 Zrotation Xrotation Yrotation
        JOINT rShldr
        {
          OFFSET -8.77824 -1.95073 1.46304
          CHANNELS 3 Zrotation Xrotation Yrotation
          JOINT rForeArm
          {
            OFFSET -28.1742 -1.7115 0.48768
            CHANNELS 3 Zrotation Xrotation Yrotation
            JOINT rHand
            {
              OFFSET -22.5879 0.773209 7.07136
              CHANNELS 3 Zrotation Xrotation Yrotation
              JOINT rThumb1
              {
                OFFSET -1.2192 -0.487915 3.41376
                CHANNELS 3 Zrotation Xrotation Yrotation
                JOINT rThumb2
                {
                  OFFSET -3.37035 -0.52449 3.41376
                  CHANNELS 3 Zrotation Xrotation Yrotation
                  End Site
                  {
                    OFFSET -1.78271 -1.18214 1.43049
                  }
                }
              }
              JOINT rIndex1
              {
                OFFSET -7.75947 0.938293 5.60832
                CHANNELS 3 Zrotation Xrotation Yrotation
                JOINT rIndex2
                {
                  OFFSET -2.54057 -0.884171 1.56538
                  CHANNELS 3 Zrotation Xrotation Yrotation
                  End Site
                  {
                    OFFSET -1.62519 -0.234802 1.16502
                  }
                }
              }
              JOINT rMid1
              {
                OFFSET -8.24714 1.18213 3.41376
                CHANNELS 3 Zrotation Xrotation Yrotation
                JOINT rMid2
                {
                  OFFSET -3.10165 -0.590103 1.0647
                  CHANNELS 3 Zrotation Xrotation Yrotation
                  End Site
                  {
                    OFFSET -2.48547 -0.328903 0.83742
                  }
                }
              }
              JOINT rRing1
              {
                OFFSET -8.82822 0.546677 1.51678
                CHANNELS 3 Zrotation Xrotation Yrotation
                JOINT rRing2
                {
                  OFFSET -2.60934 -0.819778 -0.0198488
                  CHANNELS 3 Zrotation Xrotation Yrotation
                  End Site
                  {
                    OFFSET -2.33842 -0.294052 0.168128
                  }
                }
              }
              JOINT rPinky1
              {
                OFFSET -8.27202 -0.0477905 -0.4584
                CHANNELS 3 Zrotation Xrotation Yrotation
                JOINT rPinky2
                {
                  OFFSET -1.82734 -0.647385 -0.700984
                  CHANNELS 3 Zrotation Xrotation Yrotation
                  End Site
                  {
                    OFFSET -1.69225 -0.51767 -0.607171
                  }
                }
              }
            }
          }
        }
      }
      JOINT lCollar
      {
        OFFSET 2.68224 19.2634 -4.8768
        CHANNELS 3 Zrotation Xrotation Yrotation
        JOINT lShldr
        {
          OFFSET 8.77824 -1.95073 1.46304
          CHANNELS 3 Zrotation Xrotation Yrotation
          JOINT lForeArm
          {
            OFFSET 28.1742 -1.7115 0.48768
            CHANNELS 3 Zrotation Xrotation Yrotation
            JOINT lHand
            {
              OFFSET 22.5879 0.773209 7.07136
              CHANNELS 3 Zrotation Xrotation Yrotation
              JOINT lThumb1
              {
                OFFSET 1.2192 -0.487915 3.41376
                CHANNELS 3 Zrotation Xrotation Yrotation
                JOINT lThumb2
                {
                  OFFSET 3.37035 -0.52449 3.41376
                  CHANNELS 3 Zrotation Xrotation Yrotation
                  End Site
                  {
                    OFFSET 1.78271 -1.18214 1.43049
                  }
                }
              }
              JOINT lIndex1
              {
                OFFSET 7.75947 0.938293 5.60832
                CHANNELS 3 Zrotation Xrotation Yrotation
                JOINT lIndex2
                {
                  OFFSET 2.54057 -0.884171 1.56538
                  CHANNELS 3 Zrotation Xrotation Yrotation
                  End Site
                  {
                    OFFSET 1.62519 -0.234802 1.16502
                  }
                }
              }
              JOINT lMid1
              {
                OFFSET 8.24714 1.18213 3.41376
                CHANNELS 3 Zrotation Xrotation Yrotation
                JOINT lMid2
                {
                  OFFSET 3.10165 -0.590103 1.0647
                  CHANNELS 3 Zrotation Xrotation Yrotation
                  End Site
                  {
                    OFFSET 2.48547 -0.328903 0.83742
                  }
                }
              }
              JOINT lRing1
              {
                OFFSET 8.82822 0.546677 1.51678
                CHANNELS 3 Zrotation Xrotation Yrotation
                JOINT lRing2
                {
                  OFFSET 2.60934 -0.819778 -0.0198488
                  CHANNELS 3 Zrotation Xrotation Yrotation
                  End Site
                  {
                    OFFSET 2.33842 -0.294052 0.168128
                  }
                }
              }
              JOINT lPinky1
              {
                OFFSET 8.27202 -0.0477905 -0.4584
                CHANNELS 3 Zrotation Xrotation Yrotation
                JOINT lPinky2
                {
                  OFFSET 1.82734 -0.647385 -0.700984
                  CHANNELS 3 Zrotation Xrotation Yrotation
                  End Site
                  {
                    OFFSET 1.69225 -0.51767 -0.607171
                  }
                }
              }
            }
          }
        }
      }
    }
  }
  JOINT rButtock
  {
    OFFSET -8.77824 4.35084 1.2192
    CHANNELS 3 Zrotation Xrotation Yrotation
    JOINT rThigh
    {
      OFFSET 0 -1.70687 -2.19456
      CHANNELS 3 Zrotation Xrotation Yrotation
      JOINT rShin
      {
        OFFSET 0 -36.8199 0.73152
        CHANNELS 3 Zrotation Xrotation Yrotation
        JOINT rFoot
        {
          OFFSET 0.73152 -45.1104 -5.12064
          CHANNELS 3 Zrotation Xrotation Yrotation
          End Site
          {
            OFFSET -1.1221 -3.69964 12.103
          }
        }
      }
    }
  }
  JOINT lButtock
  {
    OFFSET 8.77824 4.35084 1.2192
    CHANNELS 3 Zrotation Xrotation Yrotation
    JOINT lThigh
    {
      OFFSET 0 -1.70687 -2.19456
      CHANNELS 3 Zrotation Xrotation Yrotation
      JOINT lShin
      {
        OFFSET 0 -36.8199 0.73152
        CHANNELS 3 Zrotation Xrotation Yrotation
        JOINT lFoot
        {
          OFFSET -0.73152 -45.1104 -5.12064
          CHANNELS 3 Zrotation Xrotation Yrotation
          End Site
          {
            OFFSET 1.1221 -3.69964 12.103
          }
        }
      }
    }
  }
}
MOTION
Frames:	4
Frame Time:	0.00833333
-174.479 85.4571 14.4497 0.0 0.0 0.0 1.92988 -0.00172179 0.0523825 0.532081 0.0050711 0.0921224 1.98195e-14 0.0 8.19987e-16 5.91633e-14 9.54166e-15 2.33106e-15 -0.0 0.0 0.0 -0.0 0.0 0.0 9.59017e-15 -3.06719e-17 4.96962e-16 2.09954e-13 -1.98785e-16 9.54166e-15 3.58036e-12 -1.09133e-12 1.145e-13 4.09516e-11 9.79337e-13 1.66979e-12 9.66139e-11 -2.47829e-13 3.88982e-12 1.66853e-10 -4.26194e-13 6.69904e-12 9.66185e-11 -2.45698e-13 3.87392e-12 7.73091 5.47488 0.417314 9.66136e-11 -2.47487e-13 3.88346e-12 2.90554 0.965183 0.102902 9.66268e-11 -2.47189e-13 3.88346e-12 10.2786 0.731801 0.0259123 9.66101e-11 -2.47288e-13 3.89618e-12 2.22167 -0.733487 -0.20892 9.5932e-15 -3.3972e-17 1.98785e-16 2.04434e-13 -3.97569e-16 7.95139e-15 3.56754e-12 1.06032e-12 1.20861e-13 4.09571e-11 -1.17345e-12 1.67615e-12 9.66024e-11 -2.51638e-13 3.8771e-12 1.66833e-10 -4.32555e-13 6.7062e-12 9.6599e-11 -2.52059e-13 3.88346e-12 -7.73091 5.47488 -0.417314 9.66019e-11 -2.51661e-13 3.8771e-12 -2.90554 0.965183 -0.102902 9.65937e-11 -2.51463e-13 3.88187e-12 -10.2786 0.731801 -0.0259123 9.66072e-11 -2.50469e-13 3.87392e-12 -2.22167 -0.733487 0.20892 -2.03217e-16 0.0 -3.88251e-19 1.95939 -7.26117 -0.192011 0.00412124 7.5853 0.107068 -0.521198 -0.330674 0.0523181 2.03217e-16 0.0 3.88251e-19 0.976597 -1.92613 0.000871192 0.00898775 -2.0786 0.0740681 0.48796 3.99809 -0.13675
-167.487 85.5012 5.1257 62.2781 84.6455 61.5983 -0.79314 1.43404 1.24746 1.29513 -0.277888 0.443101 0.93967 -0.644564 0.3711 -0.287776 1.31956 0.607793 -0.0 0.0 0.0 -0.0 0.0 0.0 6.68703e-15 -1.58595e-13 -2.33688e-15 22.2597 9.68394 -1.30602 -5.17682 -2.58032 7.82293 6.16376e-05 0.21997 0.0309142 -6.54401e-10 6.16335e-11 4.72259e-10 -1.1292e-09 1.06256e-10 8.18397e-10 -6.54398e-10 6.16375e-11 4.72242e-10 7.73091 5.47488 0.417314 -6.54402e-10 6.1636e-11 4.72253e-10 2.90554 0.965183 0.102902 -6.54391e-10 6.1636e-11 4.72254e-10 10.2786 0.731801 0.0259123 -6.54403e-10 6.16368e-11 4.72264e-10 2.22167 -0.733487 -0.20892 6.66849e-15 -1.58598e-13 -2.69757e-15 -21.0819 12.4118 -1.27221 3.89536 -1.70978 -6.14817 -0.0206136 3.18911 -0.445705 1.05637e-09 -5.45317e-10 -6.41953e-10 1.81867e-09 -9.42219e-10 -1.1196e-09 1.05637e-09 -5.45316e-10 -6.41946e-10 -7.73091 5.47488 -0.417314 1.05637e-09 -5.45315e-10 -6.4195e-10 -2.90554 0.965183 -0.102902 1.05636e-09 -5.45315e-10 -6.41949e-10 -10.2786 0.731801 -0.0259123 1.05637e-09 -5.45314e-10 -6.41956e-10 -2.22167 -0.733487 0.20892 -2.03217e-16 0.0 -3.88251e-19 -1.85086 -4.44191 -1.21725 0.00162554 9.10914 0.141498 -0.610578 -6.11579 -1.1585 2.03217e-16 0.0 3.88251e-19 1.07398 1.46683 -0.0452804 0.00443181 -1.74672 0.0207466 0.687846 -0.698261 2.11738
-167.351 85.4512 5.13856 64.1244 84.5273 63.5236 -3.78077 2.95139 2.51419 2.11097 -0.576155 0.8142 1.94352 -1.31436 0.766489 -0.627664 2.70957 1.25802 -0.0 0.0 0.0 -0.0 0.0 0.0 2.69514e-15 -3.76339e-13 -7.08481e-15 46.3075 19.8939 -2.80079 -9.88088 -5.13959 16.1289 -0.000159862 0.468001 0.0657738 -1.47933e-09 1.36157e-10 9.91643e-10 -2.55275e-09 2.3479e-10 1.71846e-09 -1.47933e-09 1.36163e-10 9.91624e-10 7.73091 5.47488 0.417314 -1.47933e-09 1.36162e-10 9.91636e-10 2.90554 0.965183 0.102902 -1.47932e-09 1.36161e-10 9.91639e-10 10.2786 0.731801 0.0259123 -1.47933e-09 1.36163e-10 9.91645e-10 2.22167 -0.733487 -0.20892 2.6536e-15 -3.76341e-13 -7.51654e-15 -42.7271 25.4819 -2.81362 7.60485 -3.44339 -12.6467 0.0119597 6.57703 -0.923914 2.13026e-09 -1.1588e-09 -1.3547e-09 3.667e-09 -2.00226e-09 -2.36272e-09 2.13026e-09 -1.1588e-09 -1.35469e-09 -7.73091 5.47488 -0.417314 2.13026e-09 -1.1588e-09 -1.35469e-09 -2.90554 0.965183 -0.102902 2.13026e-09 -1.1588e-09 -1.3547e-09 -10.2786 0.731801 -0.0259123 2.13027e-09 -1.1588e-09 -1.3547e-09 -2.22167 -0.733487 0.20892 -2.03217e-16 0.0 -3.88251e-19 -5.82716 -1.45171 -2.31282 -0.00305804 10.7162 0.178222 -0.972016 -12.2077 -2.46518 2.03217e-16 0.0 3.88251e-19 1.13139 5.06083 -0.0956522 0.000413957 -1.40204 -0.0355041 1.30137 -5.62865 4.52477
-167.174 85.4192 5.10106 66.8568 84.3988 66.3178 -6.41917 4.29789 3.64671 2.83161 -0.843663 1.14517 2.84407 -1.93337 1.11386 -0.947469 3.95691 1.82725 -0.0 0.0 0.0 -0.0 0.0 0.0 8.80756e-16 -4.75724e-13 -8.00458e-15 68.2634 28.9869 -4.41636 -13.4686 -7.16497 23.6405 -0.00052724 0.659908 0.0927479 -2.15643e-09 1.85396e-10 1.409e-09 -3.72131e-09 3.19621e-10 2.44179e-09 -2.15643e-09 1.85404e-10 1.40898e-09 7.73091 5.47488 0.417314 -2.15643e-09 1.85403e-10 1.40899e-09 2.90554 0.965183 0.102902 -2.15643e-09 1.85402e-10 1.409e-09 10.2786 0.731801 0.0259123 -2.15643e-09 1.85405e-10 1.409e-09 2.22167 -0.733487 -0.20892 8.19074e-16 -4.75726e-13 -8.49028e-15 -61.2367 37.1522 -4.67852 10.603 -4.89354 -18.5062 0.0887802 9.56501 -1.35387 2.9759e-09 -1.63545e-09 -1.93361e-09 5.12235e-09 -2.82579e-09 -3.37222e-09 2.9759e-09 -1.63544e-09 -1.93361e-09 -7.73091 5.47488 -0.417314 2.9759e-09 -1.63544e-09 -1.93361e-09 -2.90554 0.965183 -0.102902 2.9759e-09 -1.63544e-09 -1.93361e-09 -10.2786 0.731801 -0.0259123 2.97591e-09 -1.63544e-09 -1.93362e-09 -2.22167 -0.733487 0.20892 -2.03217e-16 0.0 -3.88251e-19 -9.16915 1.19175 -3.26053 -0.00899367 12.1568 0.211622 -1.55309 -17.6545 -3.73658 2.03217e-16 0.0 3.88251e-19 1.28526 8.25272 -0.138977 -0.00282675 -1.08298 -0.085843 2.20555 -10.0243 6.72768
